<?xml version="1.0" encoding="iso-8859-1"?>
<!-- Generator: Adobe Illustrator 19.0.0, SVG Export Plug-In . SVG Version: 6.00 Build 0)  -->
<svg version="1.1" id="Capa_1" xmlns="http://www.w3.org/2000/svg" xmlns:xlink="http://www.w3.org/1999/xlink" x="0px" y="0px"
	 viewBox="0 0 512 512" style="enable-background:new 0 0 512 512;" xml:space="preserve">
<g>
	<g>
		<path d="M464.372,373.446H47.628c-8.968,0-16.237,7.269-16.237,16.237c0,8.968,7.269,16.237,16.237,16.237h416.744
			c8.968,0,16.237-7.269,16.237-16.237C480.609,380.715,473.34,373.446,464.372,373.446z"/>
	</g>
</g>
<g>
	<g>
		<path d="M334.478,437.852H177.522c-8.968,0-16.237,7.269-16.237,16.237c0,8.968,7.269,16.237,16.237,16.237h156.956
			c8.968,0,16.237-7.269,16.237-16.237C350.715,445.121,343.446,437.852,334.478,437.852z"/>
	</g>
</g>
<g>
	<g>
		<path d="M256,176.976c-68.941,0-125.023,56.087-125.023,125.023c0,39.477,18.331,75.961,50.291,100.1
			c7.155,5.396,17.33,3.973,22.742-3.177c5.401-7.155,3.983-17.336-3.172-22.742c-23.76-17.936-37.388-44.976-37.388-74.18
			c0-51.032,41.517-92.55,92.55-92.55c51.038,0,92.555,41.517,92.555,92.55c0,29.253-13.915,56.937-37.22,74.056
			c-7.225,5.309-8.779,15.474-3.475,22.699c3.182,4.33,8.108,6.625,13.098,6.625c3.339,0,6.706-1.028,9.601-3.15
			c31.602-23.219,50.464-60.688,50.464-100.23C381.023,233.063,324.941,176.976,256,176.976z"/>
	</g>
</g>
<g>
	<g>
		<path d="M256,41.674c-8.968,0-16.237,7.269-16.237,16.237v86.596c0,8.968,7.269,16.237,16.237,16.237s16.237-7.274,16.237-16.237
			V57.911C272.237,48.943,264.968,41.674,256,41.674z"/>
	</g>
</g>
<g>
	<g>
		<path d="M495.763,281.438h-86.596c-8.968,0-16.237,7.269-16.237,16.237s7.269,16.237,16.237,16.237h86.596
			c8.968,0,16.237-7.269,16.237-16.237S504.731,281.438,495.763,281.438z"/>
	</g>
</g>
<g>
	<g>
		<path d="M102.833,281.438H16.237C7.269,281.438,0,288.706,0,297.674s7.269,16.237,16.237,16.237h86.596
			c8.968,0,16.237-7.269,16.237-16.237S111.801,281.438,102.833,281.438z"/>
	</g>
</g>
<g>
	<g>
		<path d="M437.424,116.25c-6.343-6.338-16.616-6.343-22.959,0l-61.159,61.159c-6.343,6.343-6.343,16.621,0,22.964
			c3.172,3.166,7.323,4.752,11.479,4.752s8.313-1.586,11.479-4.752l61.159-61.159C443.768,132.871,443.768,122.593,437.424,116.25z"
			/>
	</g>
</g>
<g>
	<g>
		<path d="M158.693,177.409L97.534,116.25c-6.338-6.343-16.621-6.343-22.959,0c-6.343,6.338-6.343,16.621,0,22.959l61.159,61.159
			c3.166,3.172,7.323,4.757,11.479,4.757s8.313-1.586,11.479-4.757C165.036,194.03,165.036,183.746,158.693,177.409z"/>
	</g>
</g>
<g>
</g>
<g>
</g>
<g>
</g>
<g>
</g>
<g>
</g>
<g>
</g>
<g>
</g>
<g>
</g>
<g>
</g>
<g>
</g>
<g>
</g>
<g>
</g>
<g>
</g>
<g>
</g>
<g>
</g>
</svg>
